<svg width="200" height="200" viewBox="0 0 200 200" fill="none" xmlns="http://www.w3.org/2000/svg">
<path d="M100 0L186.603 50V150L100 200L13.3975 150V50L100 0Z" fill="#E8FAFC"/>
<mask id="mask0_2002_150" style="mask-type:alpha" maskUnits="userSpaceOnUse" x="13" y="0" width="174" height="200">
<path d="M100 0L186.603 50V150L100 200L13.3975 150V50L100 0Z" fill="#D9D9D9"/>
</mask>
<g mask="url(#mask0_2002_150)">
<path d="M-15 70C-5.92556 79.2553 6.71644 85 20.7021 85C34.5853 85 47.1424 79.3374 56.2021 70.2012C65.2619 79.3374 77.819 85 91.7021 85C105.585 85 118.142 79.3374 127.202 70.2012C136.262 79.3374 148.819 85 162.702 85C176.483 85 188.956 79.42 198 70.4023V170H-15V70Z" fill="#40CAF0"/>
<path d="M-15 100C-5.92556 109.255 6.71644 115 20.7021 115C34.5853 115 47.1424 109.337 56.2021 100.201C65.2619 109.337 77.819 115 91.7021 115C105.585 115 118.142 109.337 127.202 100.201C136.262 109.337 148.819 115 162.702 115C176.483 115 188.956 109.42 198 100.402V200H-15V100Z" fill="#0B89C9"/>
<path d="M-15 130C-5.92556 139.255 6.71644 145 20.7021 145C34.5853 145 47.1424 139.337 56.2021 130.201C65.2619 139.337 77.819 145 91.7021 145C105.585 145 118.142 139.337 127.202 130.201C136.262 139.337 148.819 145 162.702 145C176.483 145 188.956 139.42 198 130.402V230H-15V130Z" fill="#015C95"/>
</g>
<path d="M179.103 54.3291V145.67L100 191.339L20.8975 145.67V54.3291L100 8.66016L179.103 54.3291Z" stroke="#4CD0F1" stroke-width="15"/>
</svg>
