<svg width="561" height="269" viewBox="0 0 561 269" fill="none" xmlns="http://www.w3.org/2000/svg">
<path d="M252.598 128L261.689 73.4545H276.071L274.509 83.0781H275.112C276.769 79.8821 279.078 77.3608 282.037 75.5142C285.02 73.6676 288.37 72.7443 292.087 72.7443C295.78 72.7443 298.786 73.6795 301.107 75.5497C303.45 77.3963 304.8 79.9058 305.155 83.0781H305.723C307.333 79.9531 309.759 77.4555 313.003 75.5852C316.246 73.6913 319.868 72.7443 323.869 72.7443C328.912 72.7443 332.771 74.366 335.446 77.6094C338.121 80.8527 338.962 85.4219 337.967 91.3168L331.859 128H316.732L322.413 94.2997C322.863 91.2457 322.413 88.973 321.064 87.4815C319.714 85.9664 317.832 85.2088 315.418 85.2088C312.671 85.2088 310.387 86.0848 308.564 87.8366C306.741 89.5649 305.616 91.8494 305.19 94.6903L299.544 128H284.878L290.631 93.9801C291.033 91.2812 290.595 89.1506 289.317 87.5881C288.062 86.0019 286.18 85.2088 283.67 85.2088C282.013 85.2088 280.439 85.6349 278.947 86.4872C277.48 87.3158 276.237 88.4877 275.219 90.0028C274.201 91.4943 273.538 93.2462 273.23 95.2585L267.69 128H252.598ZM368.418 129.065C362.855 129.065 358.25 127.882 354.604 125.514C350.959 123.123 348.39 119.809 346.898 115.571C345.431 111.31 345.158 106.35 346.082 100.692C346.981 95.1046 348.852 90.2159 351.692 86.0256C354.533 81.8352 358.144 78.58 362.523 76.2599C366.903 73.9162 371.839 72.7443 377.332 72.7443C382.871 72.7443 387.464 73.9399 391.11 76.331C394.756 78.6984 397.325 82.0128 398.816 86.2741C400.308 90.5355 400.592 95.4953 399.668 101.153C398.745 106.717 396.851 111.594 393.987 115.784C391.122 119.974 387.512 123.241 383.156 125.585C378.799 127.905 373.887 129.065 368.418 129.065ZM369.91 117.347C372.467 117.347 374.728 116.625 376.692 115.18C378.681 113.713 380.326 111.724 381.629 109.214C382.954 106.681 383.878 103.817 384.398 100.621C384.919 97.4721 384.955 94.6785 384.505 92.2401C384.055 89.7779 383.108 87.8366 381.664 86.4162C380.244 84.9957 378.29 84.2855 375.805 84.2855C373.248 84.2855 370.975 85.0194 368.987 86.4872C366.998 87.9313 365.353 89.92 364.05 92.4531C362.748 94.9863 361.837 97.8627 361.316 101.082C360.819 104.207 360.783 107.001 361.21 109.463C361.636 111.902 362.571 113.831 364.015 115.251C365.459 116.648 367.424 117.347 369.91 117.347ZM420.442 129.03C416.986 129.03 413.991 128.426 411.458 127.219C408.949 125.988 407.102 124.165 405.918 121.75C404.735 119.335 404.439 116.34 405.031 112.766C405.551 109.735 406.534 107.202 407.978 105.166C409.446 103.107 411.233 101.449 413.34 100.195C415.447 98.9399 417.779 97.9811 420.336 97.3182C422.916 96.6553 425.58 96.2055 428.326 95.9688C431.498 95.6373 434.079 95.3177 436.067 95.0099C438.08 94.7022 439.583 94.2642 440.577 93.696C441.572 93.1042 442.175 92.2282 442.388 91.0682V90.8551C442.744 88.6297 442.329 86.9015 441.146 85.6705C439.986 84.4157 438.127 83.7884 435.57 83.7884C432.871 83.7884 430.575 84.3802 428.681 85.5639C426.811 86.7476 425.473 88.2509 424.668 90.0739L410.89 88.9375C412.121 85.6231 413.979 82.7585 416.465 80.3438C418.975 77.9053 421.993 76.035 425.521 74.733C429.048 73.4072 433.002 72.7443 437.381 72.7443C440.412 72.7443 443.241 73.0994 445.869 73.8097C448.52 74.5199 450.805 75.6207 452.722 77.1122C454.664 78.6037 456.06 80.5213 456.913 82.8651C457.789 85.1851 457.966 87.9669 457.445 91.2102L451.302 128H436.955L438.234 120.436H437.808C436.647 122.141 435.227 123.644 433.546 124.946C431.865 126.224 429.936 127.231 427.758 127.964C425.58 128.675 423.141 129.03 420.442 129.03ZM426.515 118.589C428.717 118.589 430.741 118.152 432.587 117.276C434.458 116.376 435.996 115.169 437.204 113.653C438.435 112.138 439.216 110.422 439.548 108.504L440.471 102.716C439.997 103.024 439.311 103.296 438.411 103.533C437.535 103.769 436.576 103.994 435.535 104.207C434.517 104.397 433.487 104.574 432.445 104.74C431.404 104.882 430.469 105.024 429.64 105.166C427.817 105.427 426.183 105.841 424.739 106.409C423.295 106.977 422.123 107.747 421.224 108.717C420.324 109.664 419.768 110.848 419.555 112.268C419.223 114.328 419.709 115.902 421.011 116.991C422.336 118.057 424.171 118.589 426.515 118.589ZM501.142 73.4545L499.26 84.8182H466.376L468.294 73.4545H501.142ZM477.882 60.3864H493.01L484.558 111.239C484.321 112.635 484.357 113.724 484.665 114.506C484.973 115.263 485.482 115.796 486.192 116.104C486.926 116.411 487.802 116.565 488.82 116.565C489.53 116.565 490.252 116.506 490.986 116.388C491.72 116.246 492.276 116.139 492.655 116.068L493.223 127.325C492.371 127.586 491.223 127.87 489.778 128.178C488.358 128.485 486.677 128.675 484.736 128.746C481.043 128.888 477.918 128.402 475.361 127.29C472.804 126.153 470.969 124.413 469.857 122.07C468.744 119.726 468.507 116.778 469.146 113.227L477.882 60.3864Z" fill="#0477BF"/>
<path d="M33.6818 239.545C33.6818 243.227 33.017 246.409 31.6875 249.091C30.358 251.773 28.5341 253.841 26.2159 255.295C23.8977 256.75 21.25 257.477 18.2727 257.477C15.2955 257.477 12.6477 256.75 10.3295 255.295C8.01136 253.841 6.1875 251.773 4.85795 249.091C3.52841 246.409 2.86364 243.227 2.86364 239.545C2.86364 235.864 3.52841 232.682 4.85795 230C6.1875 227.318 8.01136 225.25 10.3295 223.795C12.6477 222.341 15.2955 221.614 18.2727 221.614C21.25 221.614 23.8977 222.341 26.2159 223.795C28.5341 225.25 30.358 227.318 31.6875 230C33.017 232.682 33.6818 235.864 33.6818 239.545ZM29.5909 239.545C29.5909 236.523 29.0852 233.972 28.0739 231.892C27.0739 229.812 25.7159 228.239 24 227.17C22.2955 226.102 20.3864 225.568 18.2727 225.568C16.1591 225.568 14.2443 226.102 12.5284 227.17C10.8239 228.239 9.46591 229.812 8.45455 231.892C7.45455 233.972 6.95455 236.523 6.95455 239.545C6.95455 242.568 7.45455 245.119 8.45455 247.199C9.46591 249.278 10.8239 250.852 12.5284 251.92C14.2443 252.989 16.1591 253.523 18.2727 253.523C20.3864 253.523 22.2955 252.989 24 251.92C25.7159 250.852 27.0739 249.278 28.0739 247.199C29.0852 245.119 29.5909 242.568 29.5909 239.545ZM40.7898 257V222.091H44.8125V234.977H45.1534C45.4489 234.523 45.858 233.943 46.3807 233.239C46.9148 232.523 47.6761 231.886 48.6648 231.33C49.6648 230.761 51.017 230.477 52.7216 230.477C54.9261 230.477 56.8693 231.028 58.5511 232.131C60.233 233.233 61.5455 234.795 62.4886 236.818C63.4318 238.841 63.9034 241.227 63.9034 243.977C63.9034 246.75 63.4318 249.153 62.4886 251.188C61.5455 253.21 60.2386 254.778 58.5682 255.892C56.8977 256.994 54.9716 257.545 52.7898 257.545C51.108 257.545 49.7614 257.267 48.75 256.71C47.7386 256.142 46.9602 255.5 46.4148 254.784C45.8693 254.057 45.4489 253.455 45.1534 252.977H44.6761V257H40.7898ZM44.7443 243.909C44.7443 245.886 45.0341 247.631 45.6136 249.142C46.1932 250.642 47.0398 251.818 48.1534 252.67C49.267 253.511 50.6307 253.932 52.2443 253.932C53.9261 253.932 55.3295 253.489 56.4545 252.602C57.5909 251.705 58.4432 250.5 59.0114 248.989C59.5909 247.466 59.8807 245.773 59.8807 243.909C59.8807 242.068 59.5966 240.409 59.0284 238.932C58.4716 237.443 57.625 236.267 56.4886 235.403C55.3636 234.528 53.9489 234.091 52.2443 234.091C50.608 234.091 49.233 234.506 48.1193 235.335C47.0057 236.153 46.1648 237.301 45.5966 238.778C45.0284 240.244 44.7443 241.955 44.7443 243.909ZM70.0568 230.818H74.0795V258.909C74.0795 260.523 73.8011 261.92 73.2443 263.102C72.6989 264.284 71.8693 265.199 70.7557 265.847C69.6534 266.494 68.2614 266.818 66.5795 266.818C66.4432 266.818 66.3068 266.818 66.1705 266.818C66.0341 266.818 65.8977 266.818 65.7614 266.818V263.068C65.8977 263.068 66.0227 263.068 66.1364 263.068C66.25 263.068 66.375 263.068 66.5114 263.068C67.7386 263.068 68.6364 262.705 69.2045 261.977C69.7727 261.261 70.0568 260.239 70.0568 258.909V230.818ZM72.0341 226.455C71.25 226.455 70.5739 226.188 70.0057 225.653C69.4489 225.119 69.1705 224.477 69.1705 223.727C69.1705 222.977 69.4489 222.335 70.0057 221.801C70.5739 221.267 71.25 221 72.0341 221C72.8182 221 73.4886 221.267 74.0455 221.801C74.6136 222.335 74.8977 222.977 74.8977 223.727C74.8977 224.477 74.6136 225.119 74.0455 225.653C73.4886 226.188 72.8182 226.455 72.0341 226.455ZM92.4247 257.545C89.902 257.545 87.7259 256.989 85.8963 255.875C84.0781 254.75 82.6747 253.182 81.6861 251.17C80.7088 249.148 80.2202 246.795 80.2202 244.114C80.2202 241.432 80.7088 239.068 81.6861 237.023C82.6747 234.966 84.0497 233.364 85.8111 232.216C87.5838 231.057 89.652 230.477 92.0156 230.477C93.3793 230.477 94.7259 230.705 96.0554 231.159C97.3849 231.614 98.5952 232.352 99.6861 233.375C100.777 234.386 101.646 235.727 102.294 237.398C102.942 239.068 103.266 241.125 103.266 243.568V245.273H83.0838V241.795H99.1747C99.1747 240.318 98.8793 239 98.2884 237.841C97.7088 236.682 96.8793 235.767 95.7997 235.097C94.7315 234.426 93.4702 234.091 92.0156 234.091C90.4134 234.091 89.027 234.489 87.8565 235.284C86.6974 236.068 85.8054 237.091 85.1804 238.352C84.5554 239.614 84.2429 240.966 84.2429 242.409V244.727C84.2429 246.705 84.5838 248.381 85.2656 249.756C85.9588 251.119 86.919 252.159 88.1463 252.875C89.3736 253.58 90.7997 253.932 92.4247 253.932C93.4815 253.932 94.4361 253.784 95.2884 253.489C96.152 253.182 96.8963 252.727 97.5213 252.125C98.1463 251.511 98.6293 250.75 98.9702 249.841L102.857 250.932C102.447 252.25 101.76 253.409 100.794 254.409C99.8281 255.398 98.6349 256.17 97.2145 256.727C95.794 257.273 94.1974 257.545 92.4247 257.545ZM120.021 257.545C117.567 257.545 115.453 256.966 113.68 255.807C111.908 254.648 110.544 253.051 109.589 251.017C108.635 248.983 108.158 246.659 108.158 244.045C108.158 241.386 108.646 239.04 109.624 237.006C110.612 234.96 111.987 233.364 113.749 232.216C115.521 231.057 117.589 230.477 119.953 230.477C121.794 230.477 123.453 230.818 124.93 231.5C126.408 232.182 127.618 233.136 128.561 234.364C129.504 235.591 130.089 237.023 130.317 238.659H126.294C125.987 237.466 125.305 236.409 124.249 235.489C123.203 234.557 121.794 234.091 120.021 234.091C118.453 234.091 117.078 234.5 115.896 235.318C114.726 236.125 113.811 237.267 113.152 238.744C112.504 240.21 112.18 241.932 112.18 243.909C112.18 245.932 112.499 247.693 113.135 249.193C113.783 250.693 114.692 251.858 115.862 252.688C117.044 253.517 118.43 253.932 120.021 253.932C121.067 253.932 122.016 253.75 122.868 253.386C123.72 253.023 124.442 252.5 125.033 251.818C125.624 251.136 126.044 250.318 126.294 249.364H130.317C130.089 250.909 129.527 252.301 128.629 253.54C127.743 254.767 126.567 255.744 125.101 256.472C123.646 257.188 121.953 257.545 120.021 257.545ZM147.584 230.818V234.227H134.016V230.818H147.584ZM137.97 224.545H141.993V249.5C141.993 250.636 142.158 251.489 142.487 252.057C142.828 252.614 143.26 252.989 143.783 253.182C144.317 253.364 144.879 253.455 145.47 253.455C145.913 253.455 146.277 253.432 146.561 253.386C146.845 253.33 147.072 253.284 147.243 253.25L148.061 256.864C147.788 256.966 147.408 257.068 146.919 257.17C146.43 257.284 145.811 257.341 145.061 257.341C143.925 257.341 142.811 257.097 141.72 256.608C140.641 256.119 139.743 255.375 139.027 254.375C138.322 253.375 137.97 252.114 137.97 250.591V224.545ZM186.771 230.818C186.567 229.091 185.737 227.75 184.283 226.795C182.828 225.841 181.044 225.364 178.93 225.364C177.385 225.364 176.033 225.614 174.874 226.114C173.726 226.614 172.828 227.301 172.18 228.176C171.544 229.051 171.226 230.045 171.226 231.159C171.226 232.091 171.447 232.892 171.891 233.562C172.345 234.222 172.925 234.773 173.629 235.216C174.334 235.648 175.072 236.006 175.845 236.29C176.618 236.562 177.328 236.784 177.976 236.955L181.521 237.909C182.43 238.148 183.442 238.477 184.555 238.898C185.68 239.318 186.754 239.892 187.777 240.619C188.811 241.335 189.663 242.256 190.334 243.381C191.004 244.506 191.339 245.886 191.339 247.523C191.339 249.409 190.845 251.114 189.857 252.636C188.879 254.159 187.447 255.369 185.561 256.267C183.686 257.165 181.408 257.614 178.726 257.614C176.226 257.614 174.061 257.21 172.232 256.403C170.413 255.597 168.982 254.472 167.936 253.028C166.902 251.585 166.317 249.909 166.18 248H170.544C170.658 249.318 171.101 250.409 171.874 251.273C172.658 252.125 173.646 252.761 174.839 253.182C176.044 253.591 177.339 253.795 178.726 253.795C180.339 253.795 181.788 253.534 183.072 253.011C184.357 252.477 185.374 251.739 186.124 250.795C186.874 249.841 187.249 248.727 187.249 247.455C187.249 246.295 186.925 245.352 186.277 244.625C185.629 243.898 184.777 243.307 183.72 242.852C182.663 242.398 181.521 242 180.294 241.659L175.999 240.432C173.271 239.648 171.112 238.528 169.521 237.074C167.93 235.619 167.135 233.716 167.135 231.364C167.135 229.409 167.663 227.705 168.72 226.25C169.788 224.784 171.22 223.648 173.016 222.841C174.822 222.023 176.839 221.614 179.067 221.614C181.317 221.614 183.317 222.017 185.067 222.824C186.817 223.619 188.203 224.71 189.226 226.097C190.26 227.483 190.805 229.057 190.862 230.818H186.771ZM209.131 230.818V234.227H195.562V230.818H209.131ZM199.517 224.545H203.54V249.5C203.54 250.636 203.705 251.489 204.034 252.057C204.375 252.614 204.807 252.989 205.33 253.182C205.864 253.364 206.426 253.455 207.017 253.455C207.46 253.455 207.824 253.432 208.108 253.386C208.392 253.33 208.619 253.284 208.79 253.25L209.608 256.864C209.335 256.966 208.955 257.068 208.466 257.17C207.977 257.284 207.358 257.341 206.608 257.341C205.472 257.341 204.358 257.097 203.267 256.608C202.188 256.119 201.29 255.375 200.574 254.375C199.869 253.375 199.517 252.114 199.517 250.591V224.545ZM225.537 257.545C223.173 257.545 221.099 256.983 219.315 255.858C217.543 254.733 216.156 253.159 215.156 251.136C214.168 249.114 213.673 246.75 213.673 244.045C213.673 241.318 214.168 238.937 215.156 236.903C216.156 234.869 217.543 233.29 219.315 232.165C221.099 231.04 223.173 230.477 225.537 230.477C227.901 230.477 229.969 231.04 231.741 232.165C233.526 233.29 234.912 234.869 235.901 236.903C236.901 238.937 237.401 241.318 237.401 244.045C237.401 246.75 236.901 249.114 235.901 251.136C234.912 253.159 233.526 254.733 231.741 255.858C229.969 256.983 227.901 257.545 225.537 257.545ZM225.537 253.932C227.332 253.932 228.81 253.472 229.969 252.551C231.128 251.631 231.986 250.42 232.543 248.92C233.099 247.42 233.378 245.795 233.378 244.045C233.378 242.295 233.099 240.665 232.543 239.153C231.986 237.642 231.128 236.42 229.969 235.489C228.81 234.557 227.332 234.091 225.537 234.091C223.741 234.091 222.264 234.557 221.105 235.489C219.946 236.42 219.088 237.642 218.531 239.153C217.974 240.665 217.696 242.295 217.696 244.045C217.696 245.795 217.974 247.42 218.531 248.92C219.088 250.42 219.946 251.631 221.105 252.551C222.264 253.472 223.741 253.932 225.537 253.932ZM243.541 257V230.818H247.428V234.773H247.7C248.178 233.477 249.041 232.426 250.291 231.619C251.541 230.812 252.95 230.409 254.518 230.409C254.814 230.409 255.183 230.415 255.626 230.426C256.07 230.437 256.405 230.455 256.632 230.477V234.568C256.496 234.534 256.183 234.483 255.695 234.415C255.217 234.335 254.712 234.295 254.178 234.295C252.905 234.295 251.768 234.562 250.768 235.097C249.78 235.619 248.996 236.347 248.416 237.278C247.848 238.199 247.564 239.25 247.564 240.432V257H243.541ZM271.581 257.545C269.058 257.545 266.882 256.989 265.053 255.875C263.234 254.75 261.831 253.182 260.842 251.17C259.865 249.148 259.376 246.795 259.376 244.114C259.376 241.432 259.865 239.068 260.842 237.023C261.831 234.966 263.206 233.364 264.967 232.216C266.74 231.057 268.808 230.477 271.172 230.477C272.536 230.477 273.882 230.705 275.212 231.159C276.541 231.614 277.751 232.352 278.842 233.375C279.933 234.386 280.803 235.727 281.45 237.398C282.098 239.068 282.422 241.125 282.422 243.568V245.273H262.24V241.795H278.331C278.331 240.318 278.036 239 277.445 237.841C276.865 236.682 276.036 235.767 274.956 235.097C273.888 234.426 272.626 234.091 271.172 234.091C269.57 234.091 268.183 234.489 267.013 235.284C265.854 236.068 264.962 237.091 264.337 238.352C263.712 239.614 263.399 240.966 263.399 242.409V244.727C263.399 246.705 263.74 248.381 264.422 249.756C265.115 251.119 266.075 252.159 267.303 252.875C268.53 253.58 269.956 253.932 271.581 253.932C272.638 253.932 273.592 253.784 274.445 253.489C275.308 253.182 276.053 252.727 276.678 252.125C277.303 251.511 277.786 250.75 278.126 249.841L282.013 250.932C281.604 252.25 280.916 253.409 279.95 254.409C278.984 255.398 277.791 256.17 276.371 256.727C274.95 257.273 273.354 257.545 271.581 257.545ZM304.018 257H299.587L312.405 222.091H316.768L329.587 257H325.155L314.723 227.614H314.45L304.018 257ZM305.655 243.364H323.518V247.114H305.655V243.364ZM345.115 257.545C342.661 257.545 340.547 256.966 338.774 255.807C337.001 254.648 335.638 253.051 334.683 251.017C333.729 248.983 333.251 246.659 333.251 244.045C333.251 241.386 333.74 239.04 334.717 237.006C335.706 234.96 337.081 233.364 338.842 232.216C340.615 231.057 342.683 230.477 345.047 230.477C346.888 230.477 348.547 230.818 350.024 231.5C351.501 232.182 352.712 233.136 353.655 234.364C354.598 235.591 355.183 237.023 355.411 238.659H351.388C351.081 237.466 350.399 236.409 349.342 235.489C348.297 234.557 346.888 234.091 345.115 234.091C343.547 234.091 342.172 234.5 340.99 235.318C339.82 236.125 338.905 237.267 338.246 238.744C337.598 240.21 337.274 241.932 337.274 243.909C337.274 245.932 337.592 247.693 338.229 249.193C338.876 250.693 339.786 251.858 340.956 252.688C342.138 253.517 343.524 253.932 345.115 253.932C346.161 253.932 347.109 253.75 347.962 253.386C348.814 253.023 349.536 252.5 350.126 251.818C350.717 251.136 351.138 250.318 351.388 249.364H355.411C355.183 250.909 354.621 252.301 353.723 253.54C352.837 254.767 351.661 255.744 350.195 256.472C348.74 257.188 347.047 257.545 345.115 257.545ZM371.928 257.545C369.473 257.545 367.359 256.966 365.587 255.807C363.814 254.648 362.45 253.051 361.496 251.017C360.541 248.983 360.064 246.659 360.064 244.045C360.064 241.386 360.553 239.04 361.53 237.006C362.518 234.96 363.893 233.364 365.655 232.216C367.428 231.057 369.496 230.477 371.859 230.477C373.7 230.477 375.359 230.818 376.837 231.5C378.314 232.182 379.524 233.136 380.467 234.364C381.411 235.591 381.996 237.023 382.223 238.659H378.2C377.893 237.466 377.212 236.409 376.155 235.489C375.109 234.557 373.7 234.091 371.928 234.091C370.359 234.091 368.984 234.5 367.803 235.318C366.632 236.125 365.717 237.267 365.058 238.744C364.411 240.21 364.087 241.932 364.087 243.909C364.087 245.932 364.405 247.693 365.041 249.193C365.689 250.693 366.598 251.858 367.768 252.688C368.95 253.517 370.337 253.932 371.928 253.932C372.973 253.932 373.922 253.75 374.774 253.386C375.626 253.023 376.348 252.5 376.939 251.818C377.53 251.136 377.95 250.318 378.2 249.364H382.223C381.996 250.909 381.433 252.301 380.536 253.54C379.649 254.767 378.473 255.744 377.007 256.472C375.553 257.188 373.859 257.545 371.928 257.545ZM399.081 257.545C396.558 257.545 394.382 256.989 392.553 255.875C390.734 254.75 389.331 253.182 388.342 251.17C387.365 249.148 386.876 246.795 386.876 244.114C386.876 241.432 387.365 239.068 388.342 237.023C389.331 234.966 390.706 233.364 392.467 232.216C394.24 231.057 396.308 230.477 398.672 230.477C400.036 230.477 401.382 230.705 402.712 231.159C404.041 231.614 405.251 232.352 406.342 233.375C407.433 234.386 408.303 235.727 408.95 237.398C409.598 239.068 409.922 241.125 409.922 243.568V245.273H389.74V241.795H405.831C405.831 240.318 405.536 239 404.945 237.841C404.365 236.682 403.536 235.767 402.456 235.097C401.388 234.426 400.126 234.091 398.672 234.091C397.07 234.091 395.683 234.489 394.513 235.284C393.354 236.068 392.462 237.091 391.837 238.352C391.212 239.614 390.899 240.966 390.899 242.409V244.727C390.899 246.705 391.24 248.381 391.922 249.756C392.615 251.119 393.575 252.159 394.803 252.875C396.03 253.58 397.456 253.932 399.081 253.932C400.138 253.932 401.092 253.784 401.945 253.489C402.808 253.182 403.553 252.727 404.178 252.125C404.803 251.511 405.286 250.75 405.626 249.841L409.513 250.932C409.104 252.25 408.416 253.409 407.45 254.409C406.484 255.398 405.291 256.17 403.871 256.727C402.45 257.273 400.854 257.545 399.081 257.545ZM420.064 222.091V257H416.041V222.091H420.064ZM438.409 257.545C435.886 257.545 433.71 256.989 431.881 255.875C430.062 254.75 428.659 253.182 427.67 251.17C426.693 249.148 426.205 246.795 426.205 244.114C426.205 241.432 426.693 239.068 427.67 237.023C428.659 234.966 430.034 233.364 431.795 232.216C433.568 231.057 435.636 230.477 438 230.477C439.364 230.477 440.71 230.705 442.04 231.159C443.369 231.614 444.58 232.352 445.67 233.375C446.761 234.386 447.631 235.727 448.278 237.398C448.926 239.068 449.25 241.125 449.25 243.568V245.273H429.068V241.795H445.159C445.159 240.318 444.864 239 444.273 237.841C443.693 236.682 442.864 235.767 441.784 235.097C440.716 234.426 439.455 234.091 438 234.091C436.398 234.091 435.011 234.489 433.841 235.284C432.682 236.068 431.79 237.091 431.165 238.352C430.54 239.614 430.227 240.966 430.227 242.409V244.727C430.227 246.705 430.568 248.381 431.25 249.756C431.943 251.119 432.903 252.159 434.131 252.875C435.358 253.58 436.784 253.932 438.409 253.932C439.466 253.932 440.42 253.784 441.273 253.489C442.136 253.182 442.881 252.727 443.506 252.125C444.131 251.511 444.614 250.75 444.955 249.841L448.841 250.932C448.432 252.25 447.744 253.409 446.778 254.409C445.813 255.398 444.619 256.17 443.199 256.727C441.778 257.273 440.182 257.545 438.409 257.545ZM455.369 257V230.818H459.256V234.773H459.528C460.006 233.477 460.869 232.426 462.119 231.619C463.369 230.812 464.778 230.409 466.347 230.409C466.642 230.409 467.011 230.415 467.455 230.426C467.898 230.437 468.233 230.455 468.46 230.477V234.568C468.324 234.534 468.011 234.483 467.523 234.415C467.045 234.335 466.54 234.295 466.006 234.295C464.733 234.295 463.597 234.562 462.597 235.097C461.608 235.619 460.824 236.347 460.244 237.278C459.676 238.199 459.392 239.25 459.392 240.432V257H455.369ZM480.933 257.614C479.274 257.614 477.768 257.301 476.416 256.676C475.064 256.04 473.99 255.125 473.195 253.932C472.399 252.727 472.001 251.273 472.001 249.568C472.001 248.068 472.297 246.852 472.888 245.92C473.479 244.977 474.268 244.239 475.257 243.705C476.246 243.17 477.337 242.773 478.53 242.511C479.734 242.239 480.945 242.023 482.161 241.864C483.751 241.659 485.041 241.506 486.03 241.403C487.03 241.29 487.757 241.102 488.212 240.841C488.678 240.58 488.911 240.125 488.911 239.477V239.341C488.911 237.659 488.45 236.352 487.53 235.42C486.621 234.489 485.24 234.023 483.388 234.023C481.467 234.023 479.962 234.443 478.871 235.284C477.78 236.125 477.013 237.023 476.57 237.977L472.751 236.614C473.433 235.023 474.342 233.784 475.479 232.898C476.626 232 477.876 231.375 479.229 231.023C480.592 230.659 481.933 230.477 483.251 230.477C484.092 230.477 485.058 230.58 486.149 230.784C487.251 230.977 488.314 231.381 489.337 231.994C490.371 232.608 491.229 233.534 491.911 234.773C492.592 236.011 492.933 237.67 492.933 239.75V257H488.911V253.455H488.706C488.433 254.023 487.979 254.631 487.342 255.278C486.706 255.926 485.859 256.477 484.803 256.932C483.746 257.386 482.456 257.614 480.933 257.614ZM481.547 254C483.138 254 484.479 253.688 485.57 253.062C486.672 252.438 487.501 251.631 488.058 250.642C488.626 249.653 488.911 248.614 488.911 247.523V243.841C488.74 244.045 488.365 244.233 487.786 244.403C487.217 244.562 486.558 244.705 485.808 244.83C485.07 244.943 484.348 245.045 483.643 245.136C482.95 245.216 482.388 245.284 481.956 245.341C480.911 245.477 479.933 245.699 479.024 246.006C478.126 246.301 477.399 246.75 476.842 247.352C476.297 247.943 476.024 248.75 476.024 249.773C476.024 251.17 476.541 252.227 477.575 252.943C478.621 253.648 479.945 254 481.547 254ZM511.662 230.818V234.227H498.094V230.818H511.662ZM502.048 224.545H506.071V249.5C506.071 250.636 506.236 251.489 506.565 252.057C506.906 252.614 507.338 252.989 507.861 253.182C508.395 253.364 508.957 253.455 509.548 253.455C509.991 253.455 510.355 253.432 510.639 253.386C510.923 253.33 511.151 253.284 511.321 253.25L512.139 256.864C511.866 256.966 511.486 257.068 510.997 257.17C510.509 257.284 509.889 257.341 509.139 257.341C508.003 257.341 506.889 257.097 505.798 256.608C504.719 256.119 503.821 255.375 503.105 254.375C502.401 253.375 502.048 252.114 502.048 250.591V224.545ZM528.068 257.545C525.705 257.545 523.631 256.983 521.847 255.858C520.074 254.733 518.688 253.159 517.688 251.136C516.699 249.114 516.205 246.75 516.205 244.045C516.205 241.318 516.699 238.937 517.688 236.903C518.688 234.869 520.074 233.29 521.847 232.165C523.631 231.04 525.705 230.477 528.068 230.477C530.432 230.477 532.5 231.04 534.273 232.165C536.057 233.29 537.443 234.869 538.432 236.903C539.432 238.937 539.932 241.318 539.932 244.045C539.932 246.75 539.432 249.114 538.432 251.136C537.443 253.159 536.057 254.733 534.273 255.858C532.5 256.983 530.432 257.545 528.068 257.545ZM528.068 253.932C529.864 253.932 531.341 253.472 532.5 252.551C533.659 251.631 534.517 250.42 535.074 248.92C535.631 247.42 535.909 245.795 535.909 244.045C535.909 242.295 535.631 240.665 535.074 239.153C534.517 237.642 533.659 236.42 532.5 235.489C531.341 234.557 529.864 234.091 528.068 234.091C526.273 234.091 524.795 234.557 523.636 235.489C522.477 236.42 521.619 237.642 521.062 239.153C520.506 240.665 520.227 242.295 520.227 244.045C520.227 245.795 520.506 247.42 521.062 248.92C521.619 250.42 522.477 251.631 523.636 252.551C524.795 253.472 526.273 253.932 528.068 253.932ZM546.072 257V230.818H549.959V234.773H550.232C550.709 233.477 551.572 232.426 552.822 231.619C554.072 230.812 555.482 230.409 557.05 230.409C557.345 230.409 557.714 230.415 558.158 230.426C558.601 230.437 558.936 230.455 559.163 230.477V234.568C559.027 234.534 558.714 234.483 558.226 234.415C557.749 234.335 557.243 234.295 556.709 234.295C555.436 234.295 554.3 234.562 553.3 235.097C552.311 235.619 551.527 236.347 550.947 237.278C550.379 238.199 550.095 239.25 550.095 240.432V257H546.072Z" fill="#0477BF"/>
<path d="M111 0L197.603 50V150L111 200L24.3975 150V50L111 0Z" fill="#E8FAFC"/>
<mask id="mask0_2002_233" style="mask-type:alpha" maskUnits="userSpaceOnUse" x="24" y="0" width="174" height="200">
<path d="M111 0L197.603 50V150L111 200L24.3975 150V50L111 0Z" fill="#D9D9D9"/>
</mask>
<g mask="url(#mask0_2002_233)">
<path d="M-4 70C5.07444 79.2553 17.7164 85 31.7021 85C45.5853 85 58.1424 79.3374 67.2021 70.2012C76.2619 79.3374 88.819 85 102.702 85C116.585 85 129.142 79.3374 138.202 70.2012C147.262 79.3374 159.819 85 173.702 85C187.483 85 199.956 79.42 209 70.4023V170H-4V70Z" fill="#40CAF0"/>
<path d="M-4 100C5.07444 109.255 17.7164 115 31.7021 115C45.5853 115 58.1424 109.337 67.2021 100.201C76.2619 109.337 88.819 115 102.702 115C116.585 115 129.142 109.337 138.202 100.201C147.262 109.337 159.819 115 173.702 115C187.483 115 199.956 109.42 209 100.402V200H-4V100Z" fill="#0B89C9"/>
<path d="M-4 130C5.07444 139.255 17.7164 145 31.7021 145C45.5853 145 58.1424 139.337 67.2021 130.201C76.2619 139.337 88.819 145 102.702 145C116.585 145 129.142 139.337 138.202 130.201C147.262 139.337 159.819 145 173.702 145C187.483 145 199.956 139.42 209 130.402V230H-4V130Z" fill="#015C95"/>
</g>
<path d="M190.103 54.3291V145.67L111 191.339L31.8975 145.67V54.3291L111 8.66016L190.103 54.3291Z" stroke="#4CD0F1" stroke-width="15"/>
</svg>
